<svg xmlns="http://www.w3.org/2000/svg" width="1280" height="360" viewBox="0 0 1280 360" role="img" aria-labelledby="title desc">
  <title id="title">低熵航线</title>
  <desc id="desc">低熵航线品牌横版图：星球、航线、轨道和品牌文字。Slogan：在复杂系统中，持续构建秩序。</desc>
  <defs>
    <radialGradient id="nebula" cx="45%" cy="50%" r="62%">
      <stop offset="0" stop-color="#f3dfbf" stop-opacity=".72"/>
      <stop offset=".58" stop-color="#fff8ea" stop-opacity=".88"/>
      <stop offset="1" stop-color="#fff8ea" stop-opacity="0"/>
    </radialGradient>
    <linearGradient id="planet" x1="115" y1="95" x2="240" y2="232">
      <stop offset="0" stop-color="#fffdf7"/>
      <stop offset=".52" stop-color="#756653"/>
      <stop offset="1" stop-color="#241b12"/>
    </linearGradient>
    <linearGradient id="route" x1="102" y1="254" x2="470" y2="80">
      <stop offset="0" stop-color="#0f766e"/>
      <stop offset=".48" stop-color="#fffdf7"/>
      <stop offset="1" stop-color="#9a5b17"/>
    </linearGradient>
    
  <filter id="grain" x="0" y="0" width="100%" height="100%">
    <feTurbulence type="fractalNoise" baseFrequency="0.85" numOctaves="2" stitchTiles="stitch"/>
    <feColorMatrix type="saturate" values="0"/>
    <feComponentTransfer><feFuncA type="table" tableValues="0 0.08"/></feComponentTransfer>
  </filter>
  </defs>
  <rect width="1280" height="360" rx="38" fill="#fff8ea"/>
  <rect width="100%" height="100%" filter="url(#grain)" opacity=".22"/>
  <path d="M86 293 C198 345 403 332 573 304 C735 278 873 328 1035 296 C1138 275 1223 209 1182 145 C1144 86 1013 104 907 84 C747 53 608 24 433 72 C254 121 58 170 86 293Z" fill="url(#nebula)"/>
  <g opacity=".75" fill="#fffdf7">
    <circle cx="322" cy="78" r="2.2"/><circle cx="392" cy="264" r="1.5"/><circle cx="776" cy="93" r="1.8"/><circle cx="1048" cy="231" r="2"/><circle cx="1131" cy="151" r="1.4"/><circle cx="651" cy="285" r="1.2"/><circle cx="965" cy="118" r="1.1"/><circle cx="518" cy="58" r="1.3"/>
  </g>
  <g transform="translate(106 46)">
    <circle cx="118" cy="142" r="69" fill="url(#planet)" opacity=".95"/>
    <path d="M58 121 C86 93 142 72 191 83" fill="none" stroke="#fffdf7" stroke-width="1.4" opacity=".56"/>
    <path d="M54 169 C94 195 156 203 210 184" fill="none" stroke="#fff8ea" stroke-width="1.2" opacity=".6"/>
    <ellipse cx="142" cy="154" rx="175" ry="36" transform="rotate(-18 142 154)" fill="none" stroke="#fffdf7" stroke-width="4"/>
    <ellipse cx="142" cy="154" rx="217" ry="50" transform="rotate(-18 142 154)" fill="none" stroke="#756653" stroke-width="2" opacity=".55"/>
    <path d="M12 200 C105 128 218 86 377 70" fill="none" stroke="url(#route)" stroke-width="5" stroke-linecap="round"/>
    <path d="M356 59 L414 66 L371 106 Z" fill="#fffdf7"/>
    <path d="M340 82 C333 101 313 120 294 127" fill="none" stroke="#fffdf7" stroke-width="4" stroke-linecap="round"/>
    <path d="M86 226 C163 253 267 226 328 163" fill="none" stroke="#fffdf7" stroke-width="5" stroke-linecap="round" stroke-dasharray="10 16" opacity=".86"/>
    <path d="M30 151 C64 112 117 87 173 78" fill="none" stroke="#9a5b17" stroke-width="1.8" opacity=".5"/>
    <path d="M421 46 C530 18 663 45 741 88" fill="none" stroke="#fffdf7" stroke-width="2.2" opacity=".68"/>
    <path d="M733 85 l10 -8 l-1 13z" fill="#fffdf7"/>
    <path d="M95 40 L101 55 L117 60 L101 65 L95 81 L89 65 L73 60 L89 55 Z" fill="#fffdf7" opacity=".9"/>
  </g>
  <g transform="translate(512 104)">
    <text x="0" y="76" font-family="'Avenir Next', 'SF Pro Display', 'PingFang SC', 'Microsoft YaHei', sans-serif" font-size="82" font-weight="850" letter-spacing="3" fill="#241b12" stroke="#fff8ea" stroke-width="3" paint-order="stroke">低熵航线</text>
    <text x="4" y="128" font-family="'Avenir Next', 'SF Pro Display', Inter, sans-serif" font-size="27" font-weight="800" letter-spacing="12" fill="#fffdf7">LOW ENTROPY COURSE</text>
    <line x1="4" y1="155" x2="470" y2="155" stroke="#9a5b17" stroke-width="2" opacity=".45"/>
    <text x="4" y="196" font-family="'PingFang SC', 'Microsoft YaHei', sans-serif" font-size="28" font-weight="650" letter-spacing="1" fill="#756653">在复杂系统中，持续构建秩序</text>
  </g>
</svg>
